<svg version="1.0" xmlns="http://www.w3.org/2000/svg" width="256" height="256" viewBox="0 0 192 192"><path d="m84.7 1.2-5.8 1 5.6 2.3c9.5 3.9 16.4 8.7 24.3 17 22.4 23.3 25.4 54.5 8.7 89.3-3 6.3-7.5 14.8-10 18.9-2.5 4-4.5 7.6-4.5 7.8 0 .3 15.5.5 34.6.5h34.5l1.6-3.7c3-7.3 5.3-16.9 6.5-27.6 4.7-41.7-17.2-83-52.4-99.1-13.5-6.2-30.4-8.7-43.1-6.4z"/><path d="M47.1 23.6C31.1 29.2 19.4 45.9 14 71c-7.8 35.5 1.3 70.7 24.4 94.8 13.7 14.3 29.1 22.3 48.9 25.2 16.8 2.5 36.8-2.5 52.7-13.3 5-3.4 18-15.6 18-16.9 0-.4-22.3-.8-49.5-.8s-49.5-.3-49.5-.6 4.5-6.3 10-13.2c34.9-44 44.5-73.7 31.7-98.8-5.7-11.2-17.5-20.7-30.1-24-6.7-1.8-18-1.7-23.5.2z"/></svg>