<?xml version="1.0" standalone="no"?>
<!DOCTYPE svg PUBLIC "-//W3C//DTD SVG 20010904//EN"
 "http://www.w3.org/TR/2001/REC-SVG-20010904/DTD/svg10.dtd">
<svg version="1.0" xmlns="http://www.w3.org/2000/svg"
 width="192.000000pt" height="192.000000pt" viewBox="0 0 192.000000 192.000000"
 preserveAspectRatio="xMidYMid meet">

<g transform="translate(0.000000,192.000000) scale(0.100000,-0.100000)"
fill="#000000" stroke="none">
<path d="M847 1908 l-58 -10 56 -23 c95 -39 164 -87 243 -170 224 -233 254
-545 87 -893 -30 -63 -75 -148 -100 -189 -25 -40 -45 -76 -45 -78 0 -3 155 -5
346 -5 l345 0 16 37 c30 73 53 169 65 276 47 417 -172 830 -524 991 -135 62
-304 87 -431 64z"/>
<path d="M471 1684 c-160 -56 -277 -223 -331 -474 -78 -355 13 -707 244 -948
137 -143 291 -223 489 -252 168 -25 368 25 527 133 50 34 180 156 180 169 0 4
-223 8 -495 8 -272 0 -495 3 -495 6 0 3 45 63 100 132 349 440 445 737 317
988 -57 112 -175 207 -301 240 -67 18 -180 17 -235 -2z"/>
</g>
</svg>
